# xmcd
#
# Track frame offsets: 
#        150
#        13477
#        33087
#        48643
#        61144
#        77135
#        93228
#        106945
#        122609
#        135952
#        150298
#        164325
#        178891
#        196562
#
# Disc length: 2843 seconds
#
# Revision: 0
# Processed by: cddbd v1.5.2PL0 Copyright (c) Steve Scherf et al.
# Submitted via: ExactAudioCopyFreeDBPlugin 1.0
#
DISCID=a50b190e
DTITLE=Blue and Lonesome Duo - Lil Ronnie and Gordon Harrower - Pacing The
DTITLE=Floor
DYEAR=2018
DGENRE=Blues
TTITLE0=Drop Down Mama
TTITLE1=Wine Headed Woman
TTITLE2=Mean Red Spider
TTITLE3=Act Like You Love Me
TTITLE4=Careless Love
TTITLE5=Too Fast For Conditions
TTITLE6=Needed Time
TTITLE7=Pacing The Floor
TTITLE8=Try Me
TTITLE9=Country Boy
TTITLE10=Out On The Road
TTITLE11=Can't Buy Me Love
TTITLE12=Raining In My Heart
TTITLE13=More Than Eye Candy
EXTD=
EXTT0=
EXTT1=
EXTT2=
EXTT3=
EXTT4=
EXTT5=
EXTT6=
EXTT7=
EXTT8=
EXTT9=
EXTT10=
EXTT11=
EXTT12=
EXTT13=
PLAYORDER=
